<?xml version="1.0" encoding="utf-8" standalone="no"?>
<!DOCTYPE svg PUBLIC "-//W3C//DTD SVG 1.1//EN"
  "http://www.w3.org/Graphics/SVG/1.1/DTD/svg11.dtd">
<svg xmlns:xlink="http://www.w3.org/1999/xlink" width="391.644687pt" height="625.832125pt" viewBox="0 0 391.644687 625.832125" xmlns="http://www.w3.org/2000/svg" version="1.1">
 <metadata>
  <rdf:RDF xmlns:dc="http://purl.org/dc/elements/1.1/" xmlns:cc="http://creativecommons.org/ns#" xmlns:rdf="http://www.w3.org/1999/02/22-rdf-syntax-ns#">
   <cc:Work>
    <dc:type rdf:resource="http://purl.org/dc/dcmitype/StillImage"/>
    <dc:date>2025-12-09T10:33:16.443916</dc:date>
    <dc:format>image/svg+xml</dc:format>
    <dc:creator>
     <cc:Agent>
      <dc:title>Matplotlib v3.10.7, https://matplotlib.org/</dc:title>
     </cc:Agent>
    </dc:creator>
   </cc:Work>
  </rdf:RDF>
 </metadata>
 <defs>
  <style type="text/css">*{stroke-linejoin: round; stroke-linecap: butt}</style>
 </defs>
 <g id="figure_1">
  <g id="patch_1">
   <path d="M 0 625.832125 
L 391.644687 625.832125 
L 391.644687 0 
L 0 0 
z
" style="fill: #ffffff"/>
  </g>
  <g id="axes_1">
   <g id="patch_2">
    <path d="M 51.804688 588.275875 
L 384.444687 588.275875 
L 384.444687 33.875875 
L 51.804688 33.875875 
z
" style="fill: #ffffff"/>
   </g>
   <g id="patch_3">
    <path d="M 356.724687 102.251875 
C 356.724687 90.004408 346.796154 80.075875 334.548687 80.075875 
L 101.700688 80.075875 
C 89.453221 80.075875 79.524688 90.004408 79.524688 102.251875 
L 79.524688 519.899875 
C 79.524688 532.147342 89.453221 542.075875 101.700688 542.075875 
L 334.548687 542.075875 
C 346.796154 542.075875 356.724687 532.147342 356.724687 519.899875 
L 356.724687 102.251875 
z
" clip-path="url(#p3d5b85ef45)" style="fill: #c0c0c0; opacity: 0.8; stroke: #000000; stroke-linejoin: miter"/>
   </g>
   <g id="patch_4">
    <path d="M 345.636687 102.251875 
L 345.623332 101.707813 
L 345.583296 101.165061 
L 345.516677 100.624927 
L 345.423635 100.088714 
L 345.304394 99.557711 
L 345.159242 99.033198 
L 344.988528 98.51644 
L 344.792664 98.008681 
L 344.572121 97.511144 
L 344.32743 97.025028 
L 344.059182 96.551504 
L 343.768023 96.091712 
L 343.454653 95.646761 
L 343.119827 95.217722 
L 342.764354 94.805629 
L 342.389087 94.411475 
L 341.994933 94.036209 
L 341.58284 93.680735 
L 341.153801 93.34591 
L 340.70885 93.03254 
L 340.249059 92.74138 
L 339.775535 92.473132 
L 339.289418 92.228442 
L 338.791881 92.007899 
L 338.284122 91.812034 
L 337.767364 91.641321 
L 337.242852 91.496168 
L 336.711849 91.376928 
L 336.175635 91.283886 
L 335.635502 91.217267 
L 335.09275 91.177231 
L 334.548687 91.163875 
L 327.272187 91.163875 
L 319.995687 91.163875 
L 312.719187 91.163875 
L 305.442687 91.163875 
L 298.166187 91.163875 
L 290.889687 91.163875 
L 283.613187 91.163875 
L 276.336687 91.163875 
L 269.060187 91.163875 
L 261.783687 91.163875 
L 254.507187 91.163875 
L 247.230687 91.163875 
L 239.954187 91.163875 
L 232.677687 91.163875 
L 225.401187 91.163875 
L 218.124687 91.163875 
L 210.848187 91.163875 
L 203.571687 91.163875 
L 196.295187 91.163875 
L 189.018687 91.163875 
L 181.742188 91.163875 
L 174.465688 91.163875 
L 167.189188 91.163875 
L 159.912688 91.163875 
L 152.636188 91.163875 
L 145.359688 91.163875 
L 138.083188 91.163875 
L 130.806688 91.163875 
L 123.530188 91.163875 
L 116.253688 91.163875 
L 108.977188 91.163875 
L 101.700688 91.163875 
L 101.156625 91.177231 
L 100.613873 91.217267 
L 100.07374 91.283886 
L 99.537526 91.376928 
L 99.006523 91.496168 
L 98.482011 91.641321 
L 97.965253 91.812034 
L 97.457494 92.007899 
L 96.959957 92.228442 
L 96.47384 92.473132 
L 96.000316 92.74138 
L 95.540525 93.03254 
L 95.095574 93.34591 
L 94.666535 93.680735 
L 94.254442 94.036209 
L 93.860288 94.411475 
L 93.485021 94.805629 
L 93.129548 95.217722 
L 92.794722 95.646761 
L 92.481352 96.091712 
L 92.190193 96.551504 
L 91.921945 97.025028 
L 91.677254 97.511144 
L 91.456711 98.008681 
L 91.260847 98.51644 
L 91.090133 99.033198 
L 90.944981 99.557711 
L 90.82574 100.088714 
L 90.732698 100.624927 
L 90.666079 101.165061 
L 90.626043 101.707813 
L 90.612688 102.251875 
L 90.612688 115.303375 
L 90.612688 128.354875 
L 90.612688 141.406375 
L 90.612688 154.457875 
L 90.612688 167.509375 
L 90.612688 180.560875 
L 90.612688 193.612375 
L 90.612688 206.663875 
L 90.612688 219.715375 
L 90.612688 232.766875 
L 90.612688 245.818375 
L 90.612688 258.869875 
L 90.612688 271.921375 
L 90.612688 284.972875 
L 90.612688 298.024375 
L 90.612688 311.075875 
L 90.612688 324.127375 
L 90.612688 337.178875 
L 90.612688 350.230375 
L 90.612688 363.281875 
L 90.612688 376.333375 
L 90.612688 389.384875 
L 90.612688 402.436375 
L 90.612688 415.487875 
L 90.612688 428.539375 
L 90.612688 441.590875 
L 90.612688 454.642375 
L 90.612688 467.693875 
L 90.612688 480.745375 
L 90.612688 493.796875 
L 90.612688 506.848375 
L 90.612688 519.899875 
L 90.626043 520.443937 
L 90.666079 520.986689 
L 90.732698 521.526823 
L 90.82574 522.063036 
L 90.944981 522.594039 
L 91.090133 523.118552 
L 91.260847 523.63531 
L 91.456711 524.143069 
L 91.677254 524.640606 
L 91.921945 525.126722 
L 92.190193 525.600246 
L 92.481352 526.060038 
L 92.794722 526.504989 
L 93.129548 526.934028 
L 93.485021 527.346121 
L 93.860288 527.740275 
L 94.254442 528.115541 
L 94.666535 528.471015 
L 95.095574 528.80584 
L 95.540525 529.11921 
L 96.000316 529.41037 
L 96.47384 529.678618 
L 96.959957 529.923308 
L 97.457494 530.143851 
L 97.965253 530.339716 
L 98.482011 530.510429 
L 99.006523 530.655582 
L 99.537526 530.774822 
L 100.07374 530.867864 
L 100.613873 530.934483 
L 101.156625 530.974519 
L 101.700688 530.987875 
L 108.977188 530.987875 
L 116.253688 530.987875 
L 123.530188 530.987875 
L 130.806688 530.987875 
L 138.083188 530.987875 
L 145.359688 530.987875 
L 152.636188 530.987875 
L 159.912688 530.987875 
L 167.189188 530.987875 
L 174.465688 530.987875 
L 181.742188 530.987875 
L 189.018687 530.987875 
L 196.295187 530.987875 
L 203.571687 530.987875 
L 210.848187 530.987875 
L 218.124687 530.987875 
L 225.401187 530.987875 
L 232.677687 530.987875 
L 239.954187 530.987875 
L 247.230687 530.987875 
L 254.507187 530.987875 
L 261.783687 530.987875 
L 269.060187 530.987875 
L 276.336687 530.987875 
L 283.613187 530.987875 
L 290.889687 530.987875 
L 298.166187 530.987875 
L 305.442687 530.987875 
L 312.719187 530.987875 
L 319.995687 530.987875 
L 327.272187 530.987875 
L 334.548687 530.987875 
L 335.09275 530.974519 
L 335.635502 530.934483 
L 336.175635 530.867864 
L 336.711849 530.774822 
L 337.242852 530.655582 
L 337.767364 530.510429 
L 338.284122 530.339716 
L 338.791881 530.143851 
L 339.289418 529.923308 
L 339.775535 529.678618 
L 340.249059 529.41037 
L 340.70885 529.11921 
L 341.153801 528.80584 
L 341.58284 528.471015 
L 341.994933 528.115541 
L 342.389087 527.740275 
L 342.764354 527.346121 
L 343.119827 526.934028 
L 343.454653 526.504989 
L 343.768023 526.060038 
L 344.059182 525.600246 
L 344.32743 525.126722 
L 344.572121 524.640606 
L 344.792664 524.143069 
L 344.988528 523.63531 
L 345.159242 523.118552 
L 345.304394 522.594039 
L 345.423635 522.063036 
L 345.516677 521.526823 
L 345.583296 520.986689 
L 345.623332 520.443937 
L 345.636687 519.899875 
L 345.636687 506.848375 
L 345.636687 493.796875 
L 345.636687 480.745375 
L 345.636687 467.693875 
L 345.636687 454.642375 
L 345.636687 441.590875 
L 345.636687 428.539375 
L 345.636687 415.487875 
L 345.636687 402.436375 
L 345.636687 389.384875 
L 345.636687 376.333375 
L 345.636687 363.281875 
L 345.636687 350.230375 
L 345.636687 337.178875 
L 345.636687 324.127375 
L 345.636687 311.075875 
L 345.636687 298.024375 
L 345.636687 284.972875 
L 345.636687 271.921375 
L 345.636687 258.869875 
L 345.636687 245.818375 
L 345.636687 232.766875 
L 345.636687 219.715375 
L 345.636687 206.663875 
L 345.636687 193.612375 
L 345.636687 180.560875 
L 345.636687 167.509375 
L 345.636687 154.457875 
L 345.636687 141.406375 
L 345.636687 128.354875 
L 345.636687 115.303375 
z
" clip-path="url(#p3d5b85ef45)" style="fill: #ffffff; stroke-dasharray: 3.7,1.6; stroke-dashoffset: 0; stroke: #000000; stroke-linejoin: miter"/>
   </g>
   <g id="matplotlib.axis_1">
    <g id="xtick_1">
     <g id="line2d_1">
      <defs>
       <path id="m0ef1e58974" d="M 0 0 
L 0 3.5 
" style="stroke: #000000; stroke-width: 0.8"/>
      </defs>
      <g>
       <use xlink:href="#m0ef1e58974" x="70.284688" y="588.275875" style="stroke: #000000; stroke-width: 0.8"/>
      </g>
     </g>
     <g id="text_1">
      <!-- −0.08 -->
      <g transform="translate(54.962031 602.874312) scale(0.1 -0.1)">
       <defs>
        <path id="DejaVuSans-2212" d="M 678 2272 
L 4684 2272 
L 4684 1741 
L 678 1741 
L 678 2272 
z
" transform="scale(0.015625)"/>
        <path id="DejaVuSans-30" d="M 2034 4250 
Q 1547 4250 1301 3770 
Q 1056 3291 1056 2328 
Q 1056 1369 1301 889 
Q 1547 409 2034 409 
Q 2525 409 2770 889 
Q 3016 1369 3016 2328 
Q 3016 3291 2770 3770 
Q 2525 4250 2034 4250 
z
M 2034 4750 
Q 2819 4750 3233 4129 
Q 3647 3509 3647 2328 
Q 3647 1150 3233 529 
Q 2819 -91 2034 -91 
Q 1250 -91 836 529 
Q 422 1150 422 2328 
Q 422 3509 836 4129 
Q 1250 4750 2034 4750 
z
" transform="scale(0.015625)"/>
        <path id="DejaVuSans-2e" d="M 684 794 
L 1344 794 
L 1344 0 
L 684 0 
L 684 794 
z
" transform="scale(0.015625)"/>
        <path id="DejaVuSans-38" d="M 2034 2216 
Q 1584 2216 1326 1975 
Q 1069 1734 1069 1313 
Q 1069 891 1326 650 
Q 1584 409 2034 409 
Q 2484 409 2743 651 
Q 3003 894 3003 1313 
Q 3003 1734 2745 1975 
Q 2488 2216 2034 2216 
z
M 1403 2484 
Q 997 2584 770 2862 
Q 544 3141 544 3541 
Q 544 4100 942 4425 
Q 1341 4750 2034 4750 
Q 2731 4750 3128 4425 
Q 3525 4100 3525 3541 
Q 3525 3141 3298 2862 
Q 3072 2584 2669 2484 
Q 3125 2378 3379 2068 
Q 3634 1759 3634 1313 
Q 3634 634 3220 271 
Q 2806 -91 2034 -91 
Q 1263 -91 848 271 
Q 434 634 434 1313 
Q 434 1759 690 2068 
Q 947 2378 1403 2484 
z
M 1172 3481 
Q 1172 3119 1398 2916 
Q 1625 2713 2034 2713 
Q 2441 2713 2670 2916 
Q 2900 3119 2900 3481 
Q 2900 3844 2670 4047 
Q 2441 4250 2034 4250 
Q 1625 4250 1398 4047 
Q 1172 3844 1172 3481 
z
" transform="scale(0.015625)"/>
       </defs>
       <use xlink:href="#DejaVuSans-2212"/>
       <use xlink:href="#DejaVuSans-30" transform="translate(83.789062 0)"/>
       <use xlink:href="#DejaVuSans-2e" transform="translate(147.412109 0)"/>
       <use xlink:href="#DejaVuSans-30" transform="translate(179.199219 0)"/>
       <use xlink:href="#DejaVuSans-38" transform="translate(242.822266 0)"/>
      </g>
     </g>
    </g>
    <g id="xtick_2">
     <g id="line2d_2">
      <g>
       <use xlink:href="#m0ef1e58974" x="107.244687" y="588.275875" style="stroke: #000000; stroke-width: 0.8"/>
      </g>
     </g>
     <g id="text_2">
      <!-- −0.06 -->
      <g transform="translate(91.922031 602.874312) scale(0.1 -0.1)">
       <defs>
        <path id="DejaVuSans-36" d="M 2113 2584 
Q 1688 2584 1439 2293 
Q 1191 2003 1191 1497 
Q 1191 994 1439 701 
Q 1688 409 2113 409 
Q 2538 409 2786 701 
Q 3034 994 3034 1497 
Q 3034 2003 2786 2293 
Q 2538 2584 2113 2584 
z
M 3366 4563 
L 3366 3988 
Q 3128 4100 2886 4159 
Q 2644 4219 2406 4219 
Q 1781 4219 1451 3797 
Q 1122 3375 1075 2522 
Q 1259 2794 1537 2939 
Q 1816 3084 2150 3084 
Q 2853 3084 3261 2657 
Q 3669 2231 3669 1497 
Q 3669 778 3244 343 
Q 2819 -91 2113 -91 
Q 1303 -91 875 529 
Q 447 1150 447 2328 
Q 447 3434 972 4092 
Q 1497 4750 2381 4750 
Q 2619 4750 2861 4703 
Q 3103 4656 3366 4563 
z
" transform="scale(0.015625)"/>
       </defs>
       <use xlink:href="#DejaVuSans-2212"/>
       <use xlink:href="#DejaVuSans-30" transform="translate(83.789062 0)"/>
       <use xlink:href="#DejaVuSans-2e" transform="translate(147.412109 0)"/>
       <use xlink:href="#DejaVuSans-30" transform="translate(179.199219 0)"/>
       <use xlink:href="#DejaVuSans-36" transform="translate(242.822266 0)"/>
      </g>
     </g>
    </g>
    <g id="xtick_3">
     <g id="line2d_3">
      <g>
       <use xlink:href="#m0ef1e58974" x="144.204687" y="588.275875" style="stroke: #000000; stroke-width: 0.8"/>
      </g>
     </g>
     <g id="text_3">
      <!-- −0.04 -->
      <g transform="translate(128.882031 602.874312) scale(0.1 -0.1)">
       <defs>
        <path id="DejaVuSans-34" d="M 2419 4116 
L 825 1625 
L 2419 1625 
L 2419 4116 
z
M 2253 4666 
L 3047 4666 
L 3047 1625 
L 3713 1625 
L 3713 1100 
L 3047 1100 
L 3047 0 
L 2419 0 
L 2419 1100 
L 313 1100 
L 313 1709 
L 2253 4666 
z
" transform="scale(0.015625)"/>
       </defs>
       <use xlink:href="#DejaVuSans-2212"/>
       <use xlink:href="#DejaVuSans-30" transform="translate(83.789062 0)"/>
       <use xlink:href="#DejaVuSans-2e" transform="translate(147.412109 0)"/>
       <use xlink:href="#DejaVuSans-30" transform="translate(179.199219 0)"/>
       <use xlink:href="#DejaVuSans-34" transform="translate(242.822266 0)"/>
      </g>
     </g>
    </g>
    <g id="xtick_4">
     <g id="line2d_4">
      <g>
       <use xlink:href="#m0ef1e58974" x="181.164687" y="588.275875" style="stroke: #000000; stroke-width: 0.8"/>
      </g>
     </g>
     <g id="text_4">
      <!-- −0.02 -->
      <g transform="translate(165.842031 602.874312) scale(0.1 -0.1)">
       <defs>
        <path id="DejaVuSans-32" d="M 1228 531 
L 3431 531 
L 3431 0 
L 469 0 
L 469 531 
Q 828 903 1448 1529 
Q 2069 2156 2228 2338 
Q 2531 2678 2651 2914 
Q 2772 3150 2772 3378 
Q 2772 3750 2511 3984 
Q 2250 4219 1831 4219 
Q 1534 4219 1204 4116 
Q 875 4013 500 3803 
L 500 4441 
Q 881 4594 1212 4672 
Q 1544 4750 1819 4750 
Q 2544 4750 2975 4387 
Q 3406 4025 3406 3419 
Q 3406 3131 3298 2873 
Q 3191 2616 2906 2266 
Q 2828 2175 2409 1742 
Q 1991 1309 1228 531 
z
" transform="scale(0.015625)"/>
       </defs>
       <use xlink:href="#DejaVuSans-2212"/>
       <use xlink:href="#DejaVuSans-30" transform="translate(83.789062 0)"/>
       <use xlink:href="#DejaVuSans-2e" transform="translate(147.412109 0)"/>
       <use xlink:href="#DejaVuSans-30" transform="translate(179.199219 0)"/>
       <use xlink:href="#DejaVuSans-32" transform="translate(242.822266 0)"/>
      </g>
     </g>
    </g>
    <g id="xtick_5">
     <g id="line2d_5">
      <g>
       <use xlink:href="#m0ef1e58974" x="218.124687" y="588.275875" style="stroke: #000000; stroke-width: 0.8"/>
      </g>
     </g>
     <g id="text_5">
      <!-- 0.00 -->
      <g transform="translate(206.991875 602.874312) scale(0.1 -0.1)">
       <use xlink:href="#DejaVuSans-30"/>
       <use xlink:href="#DejaVuSans-2e" transform="translate(63.623047 0)"/>
       <use xlink:href="#DejaVuSans-30" transform="translate(95.410156 0)"/>
       <use xlink:href="#DejaVuSans-30" transform="translate(159.033203 0)"/>
      </g>
     </g>
    </g>
    <g id="xtick_6">
     <g id="line2d_6">
      <g>
       <use xlink:href="#m0ef1e58974" x="255.084687" y="588.275875" style="stroke: #000000; stroke-width: 0.8"/>
      </g>
     </g>
     <g id="text_6">
      <!-- 0.02 -->
      <g transform="translate(243.951875 602.874312) scale(0.1 -0.1)">
       <use xlink:href="#DejaVuSans-30"/>
       <use xlink:href="#DejaVuSans-2e" transform="translate(63.623047 0)"/>
       <use xlink:href="#DejaVuSans-30" transform="translate(95.410156 0)"/>
       <use xlink:href="#DejaVuSans-32" transform="translate(159.033203 0)"/>
      </g>
     </g>
    </g>
    <g id="xtick_7">
     <g id="line2d_7">
      <g>
       <use xlink:href="#m0ef1e58974" x="292.044688" y="588.275875" style="stroke: #000000; stroke-width: 0.8"/>
      </g>
     </g>
     <g id="text_7">
      <!-- 0.04 -->
      <g transform="translate(280.911875 602.874312) scale(0.1 -0.1)">
       <use xlink:href="#DejaVuSans-30"/>
       <use xlink:href="#DejaVuSans-2e" transform="translate(63.623047 0)"/>
       <use xlink:href="#DejaVuSans-30" transform="translate(95.410156 0)"/>
       <use xlink:href="#DejaVuSans-34" transform="translate(159.033203 0)"/>
      </g>
     </g>
    </g>
    <g id="xtick_8">
     <g id="line2d_8">
      <g>
       <use xlink:href="#m0ef1e58974" x="329.004687" y="588.275875" style="stroke: #000000; stroke-width: 0.8"/>
      </g>
     </g>
     <g id="text_8">
      <!-- 0.06 -->
      <g transform="translate(317.871875 602.874312) scale(0.1 -0.1)">
       <use xlink:href="#DejaVuSans-30"/>
       <use xlink:href="#DejaVuSans-2e" transform="translate(63.623047 0)"/>
       <use xlink:href="#DejaVuSans-30" transform="translate(95.410156 0)"/>
       <use xlink:href="#DejaVuSans-36" transform="translate(159.033203 0)"/>
      </g>
     </g>
    </g>
    <g id="xtick_9">
     <g id="line2d_9">
      <g>
       <use xlink:href="#m0ef1e58974" x="365.964687" y="588.275875" style="stroke: #000000; stroke-width: 0.8"/>
      </g>
     </g>
     <g id="text_9">
      <!-- 0.08 -->
      <g transform="translate(354.831875 602.874312) scale(0.1 -0.1)">
       <use xlink:href="#DejaVuSans-30"/>
       <use xlink:href="#DejaVuSans-2e" transform="translate(63.623047 0)"/>
       <use xlink:href="#DejaVuSans-30" transform="translate(95.410156 0)"/>
       <use xlink:href="#DejaVuSans-38" transform="translate(159.033203 0)"/>
      </g>
     </g>
    </g>
    <g id="text_10">
     <!-- z -->
     <g transform="translate(215.500469 616.552437) scale(0.1 -0.1)">
      <defs>
       <path id="DejaVuSans-7a" d="M 353 3500 
L 3084 3500 
L 3084 2975 
L 922 459 
L 3084 459 
L 3084 0 
L 275 0 
L 275 525 
L 2438 3041 
L 353 3041 
L 353 3500 
z
" transform="scale(0.015625)"/>
      </defs>
      <use xlink:href="#DejaVuSans-7a"/>
     </g>
    </g>
   </g>
   <g id="matplotlib.axis_2">
    <g id="ytick_1">
     <g id="line2d_10">
      <defs>
       <path id="m1d328198be" d="M 0 0 
L -3.5 0 
" style="stroke: #000000; stroke-width: 0.8"/>
      </defs>
      <g>
       <use xlink:href="#m1d328198be" x="51.804688" y="588.275875" style="stroke: #000000; stroke-width: 0.8"/>
      </g>
     </g>
     <g id="text_11">
      <!-- −0.15 -->
      <g transform="translate(14.159375 592.075094) scale(0.1 -0.1)">
       <defs>
        <path id="DejaVuSans-31" d="M 794 531 
L 1825 531 
L 1825 4091 
L 703 3866 
L 703 4441 
L 1819 4666 
L 2450 4666 
L 2450 531 
L 3481 531 
L 3481 0 
L 794 0 
L 794 531 
z
" transform="scale(0.015625)"/>
        <path id="DejaVuSans-35" d="M 691 4666 
L 3169 4666 
L 3169 4134 
L 1269 4134 
L 1269 2991 
Q 1406 3038 1543 3061 
Q 1681 3084 1819 3084 
Q 2600 3084 3056 2656 
Q 3513 2228 3513 1497 
Q 3513 744 3044 326 
Q 2575 -91 1722 -91 
Q 1428 -91 1123 -41 
Q 819 9 494 109 
L 494 744 
Q 775 591 1075 516 
Q 1375 441 1709 441 
Q 2250 441 2565 725 
Q 2881 1009 2881 1497 
Q 2881 1984 2565 2268 
Q 2250 2553 1709 2553 
Q 1456 2553 1204 2497 
Q 953 2441 691 2322 
L 691 4666 
z
" transform="scale(0.015625)"/>
       </defs>
       <use xlink:href="#DejaVuSans-2212"/>
       <use xlink:href="#DejaVuSans-30" transform="translate(83.789062 0)"/>
       <use xlink:href="#DejaVuSans-2e" transform="translate(147.412109 0)"/>
       <use xlink:href="#DejaVuSans-31" transform="translate(179.199219 0)"/>
       <use xlink:href="#DejaVuSans-35" transform="translate(242.822266 0)"/>
      </g>
     </g>
    </g>
    <g id="ytick_2">
     <g id="line2d_11">
      <g>
       <use xlink:href="#m1d328198be" x="51.804688" y="495.875875" style="stroke: #000000; stroke-width: 0.8"/>
      </g>
     </g>
     <g id="text_12">
      <!-- −0.10 -->
      <g transform="translate(14.159375 499.675094) scale(0.1 -0.1)">
       <use xlink:href="#DejaVuSans-2212"/>
       <use xlink:href="#DejaVuSans-30" transform="translate(83.789062 0)"/>
       <use xlink:href="#DejaVuSans-2e" transform="translate(147.412109 0)"/>
       <use xlink:href="#DejaVuSans-31" transform="translate(179.199219 0)"/>
       <use xlink:href="#DejaVuSans-30" transform="translate(242.822266 0)"/>
      </g>
     </g>
    </g>
    <g id="ytick_3">
     <g id="line2d_12">
      <g>
       <use xlink:href="#m1d328198be" x="51.804688" y="403.475875" style="stroke: #000000; stroke-width: 0.8"/>
      </g>
     </g>
     <g id="text_13">
      <!-- −0.05 -->
      <g transform="translate(14.159375 407.275094) scale(0.1 -0.1)">
       <use xlink:href="#DejaVuSans-2212"/>
       <use xlink:href="#DejaVuSans-30" transform="translate(83.789062 0)"/>
       <use xlink:href="#DejaVuSans-2e" transform="translate(147.412109 0)"/>
       <use xlink:href="#DejaVuSans-30" transform="translate(179.199219 0)"/>
       <use xlink:href="#DejaVuSans-35" transform="translate(242.822266 0)"/>
      </g>
     </g>
    </g>
    <g id="ytick_4">
     <g id="line2d_13">
      <g>
       <use xlink:href="#m1d328198be" x="51.804688" y="311.075875" style="stroke: #000000; stroke-width: 0.8"/>
      </g>
     </g>
     <g id="text_14">
      <!-- 0.00 -->
      <g transform="translate(22.539063 314.875094) scale(0.1 -0.1)">
       <use xlink:href="#DejaVuSans-30"/>
       <use xlink:href="#DejaVuSans-2e" transform="translate(63.623047 0)"/>
       <use xlink:href="#DejaVuSans-30" transform="translate(95.410156 0)"/>
       <use xlink:href="#DejaVuSans-30" transform="translate(159.033203 0)"/>
      </g>
     </g>
    </g>
    <g id="ytick_5">
     <g id="line2d_14">
      <g>
       <use xlink:href="#m1d328198be" x="51.804688" y="218.675875" style="stroke: #000000; stroke-width: 0.8"/>
      </g>
     </g>
     <g id="text_15">
      <!-- 0.05 -->
      <g transform="translate(22.539063 222.475094) scale(0.1 -0.1)">
       <use xlink:href="#DejaVuSans-30"/>
       <use xlink:href="#DejaVuSans-2e" transform="translate(63.623047 0)"/>
       <use xlink:href="#DejaVuSans-30" transform="translate(95.410156 0)"/>
       <use xlink:href="#DejaVuSans-35" transform="translate(159.033203 0)"/>
      </g>
     </g>
    </g>
    <g id="ytick_6">
     <g id="line2d_15">
      <g>
       <use xlink:href="#m1d328198be" x="51.804688" y="126.275875" style="stroke: #000000; stroke-width: 0.8"/>
      </g>
     </g>
     <g id="text_16">
      <!-- 0.10 -->
      <g transform="translate(22.539063 130.075094) scale(0.1 -0.1)">
       <use xlink:href="#DejaVuSans-30"/>
       <use xlink:href="#DejaVuSans-2e" transform="translate(63.623047 0)"/>
       <use xlink:href="#DejaVuSans-31" transform="translate(95.410156 0)"/>
       <use xlink:href="#DejaVuSans-30" transform="translate(159.033203 0)"/>
      </g>
     </g>
    </g>
    <g id="ytick_7">
     <g id="line2d_16">
      <g>
       <use xlink:href="#m1d328198be" x="51.804688" y="33.875875" style="stroke: #000000; stroke-width: 0.8"/>
      </g>
     </g>
     <g id="text_17">
      <!-- 0.15 -->
      <g transform="translate(22.539063 37.675094) scale(0.1 -0.1)">
       <use xlink:href="#DejaVuSans-30"/>
       <use xlink:href="#DejaVuSans-2e" transform="translate(63.623047 0)"/>
       <use xlink:href="#DejaVuSans-31" transform="translate(95.410156 0)"/>
       <use xlink:href="#DejaVuSans-35" transform="translate(159.033203 0)"/>
      </g>
     </g>
    </g>
    <g id="text_18">
     <!-- y -->
     <g transform="translate(7.2 308.996188) scale(0.1 -0.1)">
      <defs>
       <path id="DejaVuSans-79" d="M 2059 -325 
Q 1816 -950 1584 -1140 
Q 1353 -1331 966 -1331 
L 506 -1331 
L 506 -850 
L 844 -850 
Q 1081 -850 1212 -737 
Q 1344 -625 1503 -206 
L 1606 56 
L 191 3500 
L 800 3500 
L 1894 763 
L 2988 3500 
L 3597 3500 
L 2059 -325 
z
" transform="scale(0.015625)"/>
      </defs>
      <use xlink:href="#DejaVuSans-79"/>
     </g>
    </g>
   </g>
   <g id="patch_5">
    <path d="M 51.804688 588.275875 
L 51.804688 33.875875 
" style="fill: none; stroke: #000000; stroke-width: 0.8; stroke-linejoin: miter; stroke-linecap: square"/>
   </g>
   <g id="patch_6">
    <path d="M 384.444687 588.275875 
L 384.444687 33.875875 
" style="fill: none; stroke: #000000; stroke-width: 0.8; stroke-linejoin: miter; stroke-linecap: square"/>
   </g>
   <g id="patch_7">
    <path d="M 51.804688 588.275875 
L 384.444687 588.275875 
" style="fill: none; stroke: #000000; stroke-width: 0.8; stroke-linejoin: miter; stroke-linecap: square"/>
   </g>
   <g id="patch_8">
    <path d="M 51.804688 33.875875 
L 384.444687 33.875875 
" style="fill: none; stroke: #000000; stroke-width: 0.8; stroke-linejoin: miter; stroke-linecap: square"/>
   </g>
   <g id="text_19">
    <!-- RHS 0.15x0.25x0.006 -->
    <g transform="translate(158.178984 15.558281) scale(0.11 -0.11)">
     <defs>
      <path id="DejaVuSans-52" d="M 2841 2188 
Q 3044 2119 3236 1894 
Q 3428 1669 3622 1275 
L 4263 0 
L 3584 0 
L 2988 1197 
Q 2756 1666 2539 1819 
Q 2322 1972 1947 1972 
L 1259 1972 
L 1259 0 
L 628 0 
L 628 4666 
L 2053 4666 
Q 2853 4666 3247 4331 
Q 3641 3997 3641 3322 
Q 3641 2881 3436 2590 
Q 3231 2300 2841 2188 
z
M 1259 4147 
L 1259 2491 
L 2053 2491 
Q 2509 2491 2742 2702 
Q 2975 2913 2975 3322 
Q 2975 3731 2742 3939 
Q 2509 4147 2053 4147 
L 1259 4147 
z
" transform="scale(0.015625)"/>
      <path id="DejaVuSans-48" d="M 628 4666 
L 1259 4666 
L 1259 2753 
L 3553 2753 
L 3553 4666 
L 4184 4666 
L 4184 0 
L 3553 0 
L 3553 2222 
L 1259 2222 
L 1259 0 
L 628 0 
L 628 4666 
z
" transform="scale(0.015625)"/>
      <path id="DejaVuSans-53" d="M 3425 4513 
L 3425 3897 
Q 3066 4069 2747 4153 
Q 2428 4238 2131 4238 
Q 1616 4238 1336 4038 
Q 1056 3838 1056 3469 
Q 1056 3159 1242 3001 
Q 1428 2844 1947 2747 
L 2328 2669 
Q 3034 2534 3370 2195 
Q 3706 1856 3706 1288 
Q 3706 609 3251 259 
Q 2797 -91 1919 -91 
Q 1588 -91 1214 -16 
Q 841 59 441 206 
L 441 856 
Q 825 641 1194 531 
Q 1563 422 1919 422 
Q 2459 422 2753 634 
Q 3047 847 3047 1241 
Q 3047 1584 2836 1778 
Q 2625 1972 2144 2069 
L 1759 2144 
Q 1053 2284 737 2584 
Q 422 2884 422 3419 
Q 422 4038 858 4394 
Q 1294 4750 2059 4750 
Q 2388 4750 2728 4690 
Q 3069 4631 3425 4513 
z
" transform="scale(0.015625)"/>
      <path id="DejaVuSans-20" transform="scale(0.015625)"/>
      <path id="DejaVuSans-78" d="M 3513 3500 
L 2247 1797 
L 3578 0 
L 2900 0 
L 1881 1375 
L 863 0 
L 184 0 
L 1544 1831 
L 300 3500 
L 978 3500 
L 1906 2253 
L 2834 3500 
L 3513 3500 
z
" transform="scale(0.015625)"/>
     </defs>
     <use xlink:href="#DejaVuSans-52"/>
     <use xlink:href="#DejaVuSans-48" transform="translate(69.482422 0)"/>
     <use xlink:href="#DejaVuSans-53" transform="translate(144.677734 0)"/>
     <use xlink:href="#DejaVuSans-20" transform="translate(208.154297 0)"/>
     <use xlink:href="#DejaVuSans-30" transform="translate(239.941406 0)"/>
     <use xlink:href="#DejaVuSans-2e" transform="translate(303.564453 0)"/>
     <use xlink:href="#DejaVuSans-31" transform="translate(335.351562 0)"/>
     <use xlink:href="#DejaVuSans-35" transform="translate(398.974609 0)"/>
     <use xlink:href="#DejaVuSans-78" transform="translate(462.597656 0)"/>
     <use xlink:href="#DejaVuSans-30" transform="translate(521.777344 0)"/>
     <use xlink:href="#DejaVuSans-2e" transform="translate(585.400391 0)"/>
     <use xlink:href="#DejaVuSans-32" transform="translate(617.1875 0)"/>
     <use xlink:href="#DejaVuSans-35" transform="translate(680.810547 0)"/>
     <use xlink:href="#DejaVuSans-78" transform="translate(744.433594 0)"/>
     <use xlink:href="#DejaVuSans-30" transform="translate(803.613281 0)"/>
     <use xlink:href="#DejaVuSans-2e" transform="translate(867.236328 0)"/>
     <use xlink:href="#DejaVuSans-30" transform="translate(899.023438 0)"/>
     <use xlink:href="#DejaVuSans-30" transform="translate(962.646484 0)"/>
     <use xlink:href="#DejaVuSans-36" transform="translate(1026.269531 0)"/>
    </g>
    <!-- A=0.0 mm², Iy=1.77e-05 mm⁴, Iz=3.89e-05 mm⁴ -->
    <g transform="translate(82.180156 27.875875) scale(0.11 -0.11)">
     <defs>
      <path id="DejaVuSans-41" d="M 2188 4044 
L 1331 1722 
L 3047 1722 
L 2188 4044 
z
M 1831 4666 
L 2547 4666 
L 4325 0 
L 3669 0 
L 3244 1197 
L 1141 1197 
L 716 0 
L 50 0 
L 1831 4666 
z
" transform="scale(0.015625)"/>
      <path id="DejaVuSans-3d" d="M 678 2906 
L 4684 2906 
L 4684 2381 
L 678 2381 
L 678 2906 
z
M 678 1631 
L 4684 1631 
L 4684 1100 
L 678 1100 
L 678 1631 
z
" transform="scale(0.015625)"/>
      <path id="DejaVuSans-6d" d="M 3328 2828 
Q 3544 3216 3844 3400 
Q 4144 3584 4550 3584 
Q 5097 3584 5394 3201 
Q 5691 2819 5691 2113 
L 5691 0 
L 5113 0 
L 5113 2094 
Q 5113 2597 4934 2840 
Q 4756 3084 4391 3084 
Q 3944 3084 3684 2787 
Q 3425 2491 3425 1978 
L 3425 0 
L 2847 0 
L 2847 2094 
Q 2847 2600 2669 2842 
Q 2491 3084 2119 3084 
Q 1678 3084 1418 2786 
Q 1159 2488 1159 1978 
L 1159 0 
L 581 0 
L 581 3500 
L 1159 3500 
L 1159 2956 
Q 1356 3278 1631 3431 
Q 1906 3584 2284 3584 
Q 2666 3584 2933 3390 
Q 3200 3197 3328 2828 
z
" transform="scale(0.015625)"/>
      <path id="DejaVuSans-b2" d="M 838 2444 
L 2163 2444 
L 2163 2088 
L 294 2088 
L 294 2431 
Q 400 2528 597 2703 
Q 1672 3656 1672 3950 
Q 1672 4156 1509 4282 
Q 1347 4409 1081 4409 
Q 919 4409 728 4354 
Q 538 4300 313 4191 
L 313 4575 
Q 553 4663 761 4706 
Q 969 4750 1147 4750 
Q 1600 4750 1872 4544 
Q 2144 4338 2144 4000 
Q 2144 3566 1109 2678 
Q 934 2528 838 2444 
z
" transform="scale(0.015625)"/>
      <path id="DejaVuSans-2c" d="M 750 794 
L 1409 794 
L 1409 256 
L 897 -744 
L 494 -744 
L 750 256 
L 750 794 
z
" transform="scale(0.015625)"/>
      <path id="DejaVuSans-49" d="M 628 4666 
L 1259 4666 
L 1259 0 
L 628 0 
L 628 4666 
z
" transform="scale(0.015625)"/>
      <path id="DejaVuSans-37" d="M 525 4666 
L 3525 4666 
L 3525 4397 
L 1831 0 
L 1172 0 
L 2766 4134 
L 525 4134 
L 525 4666 
z
" transform="scale(0.015625)"/>
      <path id="DejaVuSans-65" d="M 3597 1894 
L 3597 1613 
L 953 1613 
Q 991 1019 1311 708 
Q 1631 397 2203 397 
Q 2534 397 2845 478 
Q 3156 559 3463 722 
L 3463 178 
Q 3153 47 2828 -22 
Q 2503 -91 2169 -91 
Q 1331 -91 842 396 
Q 353 884 353 1716 
Q 353 2575 817 3079 
Q 1281 3584 2069 3584 
Q 2775 3584 3186 3129 
Q 3597 2675 3597 1894 
z
M 3022 2063 
Q 3016 2534 2758 2815 
Q 2500 3097 2075 3097 
Q 1594 3097 1305 2825 
Q 1016 2553 972 2059 
L 3022 2063 
z
" transform="scale(0.015625)"/>
      <path id="DejaVuSans-2d" d="M 313 2009 
L 1997 2009 
L 1997 1497 
L 313 1497 
L 313 2009 
z
" transform="scale(0.015625)"/>
      <path id="DejaVuSans-2074" d="M 1491 4319 
L 525 3009 
L 1491 3009 
L 1491 4319 
z
M 1422 4697 
L 1941 4697 
L 1941 3009 
L 2363 3009 
L 2363 2669 
L 1941 2669 
L 1941 2088 
L 1491 2088 
L 1491 2669 
L 197 2669 
L 197 3047 
L 1422 4697 
z
" transform="scale(0.015625)"/>
      <path id="DejaVuSans-33" d="M 2597 2516 
Q 3050 2419 3304 2112 
Q 3559 1806 3559 1356 
Q 3559 666 3084 287 
Q 2609 -91 1734 -91 
Q 1441 -91 1130 -33 
Q 819 25 488 141 
L 488 750 
Q 750 597 1062 519 
Q 1375 441 1716 441 
Q 2309 441 2620 675 
Q 2931 909 2931 1356 
Q 2931 1769 2642 2001 
Q 2353 2234 1838 2234 
L 1294 2234 
L 1294 2753 
L 1863 2753 
Q 2328 2753 2575 2939 
Q 2822 3125 2822 3475 
Q 2822 3834 2567 4026 
Q 2313 4219 1838 4219 
Q 1578 4219 1281 4162 
Q 984 4106 628 3988 
L 628 4550 
Q 988 4650 1302 4700 
Q 1616 4750 1894 4750 
Q 2613 4750 3031 4423 
Q 3450 4097 3450 3541 
Q 3450 3153 3228 2886 
Q 3006 2619 2597 2516 
z
" transform="scale(0.015625)"/>
      <path id="DejaVuSans-39" d="M 703 97 
L 703 672 
Q 941 559 1184 500 
Q 1428 441 1663 441 
Q 2288 441 2617 861 
Q 2947 1281 2994 2138 
Q 2813 1869 2534 1725 
Q 2256 1581 1919 1581 
Q 1219 1581 811 2004 
Q 403 2428 403 3163 
Q 403 3881 828 4315 
Q 1253 4750 1959 4750 
Q 2769 4750 3195 4129 
Q 3622 3509 3622 2328 
Q 3622 1225 3098 567 
Q 2575 -91 1691 -91 
Q 1453 -91 1209 -44 
Q 966 3 703 97 
z
M 1959 2075 
Q 2384 2075 2632 2365 
Q 2881 2656 2881 3163 
Q 2881 3666 2632 3958 
Q 2384 4250 1959 4250 
Q 1534 4250 1286 3958 
Q 1038 3666 1038 3163 
Q 1038 2656 1286 2365 
Q 1534 2075 1959 2075 
z
" transform="scale(0.015625)"/>
     </defs>
     <use xlink:href="#DejaVuSans-41"/>
     <use xlink:href="#DejaVuSans-3d" transform="translate(68.408203 0)"/>
     <use xlink:href="#DejaVuSans-30" transform="translate(152.197266 0)"/>
     <use xlink:href="#DejaVuSans-2e" transform="translate(215.820312 0)"/>
     <use xlink:href="#DejaVuSans-30" transform="translate(247.607422 0)"/>
     <use xlink:href="#DejaVuSans-20" transform="translate(311.230469 0)"/>
     <use xlink:href="#DejaVuSans-6d" transform="translate(343.017578 0)"/>
     <use xlink:href="#DejaVuSans-6d" transform="translate(440.429688 0)"/>
     <use xlink:href="#DejaVuSans-b2" transform="translate(537.841797 0)"/>
     <use xlink:href="#DejaVuSans-2c" transform="translate(577.929688 0)"/>
     <use xlink:href="#DejaVuSans-20" transform="translate(609.716797 0)"/>
     <use xlink:href="#DejaVuSans-49" transform="translate(641.503906 0)"/>
     <use xlink:href="#DejaVuSans-79" transform="translate(670.996094 0)"/>
     <use xlink:href="#DejaVuSans-3d" transform="translate(730.175781 0)"/>
     <use xlink:href="#DejaVuSans-31" transform="translate(813.964844 0)"/>
     <use xlink:href="#DejaVuSans-2e" transform="translate(877.587891 0)"/>
     <use xlink:href="#DejaVuSans-37" transform="translate(909.375 0)"/>
     <use xlink:href="#DejaVuSans-37" transform="translate(972.998047 0)"/>
     <use xlink:href="#DejaVuSans-65" transform="translate(1036.621094 0)"/>
     <use xlink:href="#DejaVuSans-2d" transform="translate(1098.144531 0)"/>
     <use xlink:href="#DejaVuSans-30" transform="translate(1134.228516 0)"/>
     <use xlink:href="#DejaVuSans-35" transform="translate(1197.851562 0)"/>
     <use xlink:href="#DejaVuSans-20" transform="translate(1261.474609 0)"/>
     <use xlink:href="#DejaVuSans-6d" transform="translate(1293.261719 0)"/>
     <use xlink:href="#DejaVuSans-6d" transform="translate(1390.673828 0)"/>
     <use xlink:href="#DejaVuSans-2074" transform="translate(1488.085938 0)"/>
     <use xlink:href="#DejaVuSans-2c" transform="translate(1528.173828 0)"/>
     <use xlink:href="#DejaVuSans-20" transform="translate(1559.960938 0)"/>
     <use xlink:href="#DejaVuSans-49" transform="translate(1591.748047 0)"/>
     <use xlink:href="#DejaVuSans-7a" transform="translate(1621.240234 0)"/>
     <use xlink:href="#DejaVuSans-3d" transform="translate(1673.730469 0)"/>
     <use xlink:href="#DejaVuSans-33" transform="translate(1757.519531 0)"/>
     <use xlink:href="#DejaVuSans-2e" transform="translate(1821.142578 0)"/>
     <use xlink:href="#DejaVuSans-38" transform="translate(1852.929688 0)"/>
     <use xlink:href="#DejaVuSans-39" transform="translate(1916.552734 0)"/>
     <use xlink:href="#DejaVuSans-65" transform="translate(1980.175781 0)"/>
     <use xlink:href="#DejaVuSans-2d" transform="translate(2041.699219 0)"/>
     <use xlink:href="#DejaVuSans-30" transform="translate(2077.783203 0)"/>
     <use xlink:href="#DejaVuSans-35" transform="translate(2141.40625 0)"/>
     <use xlink:href="#DejaVuSans-20" transform="translate(2205.029297 0)"/>
     <use xlink:href="#DejaVuSans-6d" transform="translate(2236.816406 0)"/>
     <use xlink:href="#DejaVuSans-6d" transform="translate(2334.228516 0)"/>
     <use xlink:href="#DejaVuSans-2074" transform="translate(2431.640625 0)"/>
    </g>
   </g>
  </g>
 </g>
 <defs>
  <clipPath id="p3d5b85ef45">
   <rect x="51.804688" y="33.875875" width="332.64" height="554.4"/>
  </clipPath>
 </defs>
</svg>
